<svg width="16" height="15" viewBox="0 0 16 15" fill="none" xmlns="http://www.w3.org/2000/svg">
<path d="M8 0C5.829 0 5.556 0.009375 4.703 0.045C3.85 0.0825 3.269 0.208125 2.76 0.39375C2.22609 0.582018 1.74249 0.877337 1.343 1.25906C0.936076 1.63378 0.621107 2.0871 0.42 2.5875C0.222 3.06375 0.087 3.60937 0.048 4.40625C0.01 5.20781 0 5.46281 0 7.50094C0 9.53719 0.01 9.79219 0.048 10.5919C0.088 11.3906 0.222 11.9353 0.42 12.4125C0.625 12.9056 0.898 13.3237 1.343 13.7409C1.787 14.1581 2.233 14.415 2.759 14.6062C3.269 14.7919 3.849 14.9184 4.701 14.955C5.555 14.9906 5.827 15 8 15C10.173 15 10.444 14.9906 11.298 14.955C12.149 14.9175 12.732 14.7919 13.241 14.6062C13.7746 14.4179 14.2578 14.1226 14.657 13.7409C15.102 13.3237 15.375 12.9056 15.58 12.4125C15.777 11.9353 15.912 11.3906 15.952 10.5919C15.99 9.79219 16 9.53719 16 7.5C16 5.46281 15.99 5.20781 15.952 4.40719C15.912 3.60938 15.777 3.06375 15.58 2.5875C15.3789 2.08709 15.0639 1.63376 14.657 1.25906C14.2576 0.877196 13.774 0.581855 13.24 0.39375C12.73 0.208125 12.148 0.0815625 11.297 0.045C10.443 0.009375 10.172 0 7.998 0H8.001H8ZM7.283 1.35188H8.001C10.137 1.35188 10.39 1.35844 11.233 1.395C12.013 1.42781 12.437 1.55063 12.719 1.65281C13.092 1.78875 13.359 1.95187 13.639 2.21437C13.919 2.47687 14.092 2.72625 14.237 3.07688C14.347 3.34031 14.477 3.73781 14.512 4.46906C14.551 5.25938 14.559 5.49656 14.559 7.49813C14.559 9.49969 14.551 9.73781 14.512 10.5281C14.477 11.2594 14.346 11.6559 14.237 11.9203C14.1087 12.246 13.904 12.5404 13.638 12.7819C13.358 13.0444 13.092 13.2066 12.718 13.3425C12.438 13.4456 12.014 13.5675 11.233 13.6013C10.39 13.6369 10.137 13.6453 8.001 13.6453C5.865 13.6453 5.611 13.6369 4.768 13.6013C3.988 13.5675 3.565 13.4456 3.283 13.3425C2.9355 13.2224 2.62113 13.0309 2.363 12.7819C2.09675 12.54 1.89172 12.2453 1.763 11.9194C1.654 11.6559 1.523 11.2584 1.488 10.5272C1.45 9.73688 1.442 9.49969 1.442 7.49625C1.442 5.49375 1.45 5.2575 1.488 4.46719C1.524 3.73594 1.654 3.33844 1.764 3.07406C1.909 2.72438 2.083 2.47406 2.363 2.21156C2.643 1.94906 2.909 1.78688 3.283 1.65094C3.565 1.54781 3.988 1.42594 4.768 1.39219C5.506 1.36031 5.792 1.35094 7.283 1.35V1.35188ZM12.271 2.59687C12.1449 2.59687 12.0201 2.62015 11.9036 2.66538C11.7872 2.71061 11.6813 2.77691 11.5922 2.86048C11.503 2.94405 11.4323 3.04327 11.3841 3.15246C11.3358 3.26165 11.311 3.37869 11.311 3.49688C11.311 3.61506 11.3358 3.7321 11.3841 3.84129C11.4323 3.95048 11.503 4.0497 11.5922 4.13327C11.6813 4.21684 11.7872 4.28314 11.9036 4.32837C12.0201 4.3736 12.1449 4.39688 12.271 4.39688C12.5256 4.39688 12.7698 4.30205 12.9498 4.13327C13.1299 3.96449 13.231 3.73557 13.231 3.49688C13.231 3.25818 13.1299 3.02926 12.9498 2.86048C12.7698 2.6917 12.5256 2.59687 12.271 2.59687ZM8.001 3.64875C7.45607 3.64078 6.91489 3.73452 6.40898 3.92451C5.90306 4.1145 5.44251 4.39694 5.05415 4.7554C4.66579 5.11385 4.35736 5.54116 4.14684 6.01243C3.93632 6.48371 3.8279 6.98954 3.8279 7.50047C3.8279 8.0114 3.93632 8.51723 4.14684 8.98851C4.35736 9.45978 4.66579 9.88708 5.05415 10.2455C5.44251 10.604 5.90306 10.8864 6.40898 11.0764C6.91489 11.2664 7.45607 11.3602 8.001 11.3522C9.07954 11.3364 10.1082 10.9237 10.865 10.203C11.6217 9.48243 12.0459 8.51172 12.0459 7.50047C12.0459 6.48921 11.6217 5.51851 10.865 4.79789C10.1082 4.07727 9.07954 3.66453 8.001 3.64875ZM8.001 4.99969C8.70833 4.99969 9.38669 5.26311 9.88685 5.73201C10.387 6.20091 10.668 6.83688 10.668 7.5C10.668 8.16312 10.387 8.79909 9.88685 9.26799C9.38669 9.73689 8.70833 10.0003 8.001 10.0003C7.29367 10.0003 6.61531 9.73689 6.11515 9.26799C5.61499 8.79909 5.334 8.16312 5.334 7.5C5.334 6.83688 5.61499 6.20091 6.11515 5.73201C6.61531 5.26311 7.29367 4.99969 8.001 4.99969Z" fill="white"/>
</svg>
