<svg width="15" height="14" viewBox="0 0 15 14" fill="none" xmlns="http://www.w3.org/2000/svg">
<path d="M3.2381 4.85731H0V13.7621H3.2381V4.85731Z" fill="white"/>
<path d="M1.61905 3.2381C2.51322 3.2381 3.2381 2.51322 3.2381 1.61905C3.2381 0.724872 2.51322 0 1.61905 0C0.724872 0 0 0.724872 0 1.61905C0 2.51322 0.724872 3.2381 1.61905 3.2381Z" fill="white"/>
<path d="M10.9289 4.24997C9.82385 4.25321 8.78037 4.76078 8.09552 5.6294V4.85712H4.85742V13.7619H8.09552V8.09521C8.09552 7.2015 8.82085 6.47616 9.71457 6.47616C10.6083 6.47616 11.3336 7.2015 11.3336 8.09521V13.7619H14.5717V7.89283C14.5717 5.88116 12.9405 4.24997 10.9289 4.24997Z" fill="white"/>
</svg>
