<svg width="19" height="14" viewBox="0 0 19 14" fill="none" xmlns="http://www.w3.org/2000/svg">
<g clip-path="url(#clip0_1150_3435)">
<path d="M18.4394 2.7573C18.3267 1.42731 17.3269 0.375503 16.0664 0.261476C14.6066 0.133687 12.444 0 9.775 0C6.56135 0 4.13436 0.138602 2.56664 0.268357C1.30054 0.375503 0.292319 1.43124 0.179674 2.76713C0.0828548 3.83367 0 5.2423 0 6.92224C0 8.56089 0.0828548 9.94494 0.177812 10.9977C0.291388 12.3316 1.29961 13.3854 2.56384 13.4926C4.13343 13.6233 6.55949 13.7619 9.775 13.7619C12.444 13.7619 14.6066 13.6282 16.0664 13.5004C17.3269 13.3864 18.3267 12.3336 18.4394 11.0046C18.5353 9.94298 18.619 8.54319 18.619 6.88095C18.619 5.21773 18.5353 3.81893 18.4394 2.7573ZM7.23909 9.76997V3.99194L12.6367 6.88095L7.23909 9.76997Z" fill="white"/>
</g>
<defs>
<clipPath id="clip0_1150_3435">
<rect width="18.619" height="13.7619" fill="white"/>
</clipPath>
</defs>
</svg>
